<?xml version="1.0" encoding="UTF-8"?>
<svg id="_レイヤー_1" data-name="レイヤー_1" xmlns="http://www.w3.org/2000/svg" version="1.1" viewBox="0 0 86.1 33.2">
  <!-- Generator: Adobe Illustrator 29.1.0, SVG Export Plug-In . SVG Version: 2.1.0 Build 142)  -->
  <path d="M26.2,8.9h0c0-1.1.1-1.2.2-1.8-1.3,0-1.8,0-2.4,0-.8,0-2.3,0-2.6-.1.1,1.1,0,.7,0,1.8,0,1.1,0,7.1,0,8.2,0,1.1-.1,2.1-.2,3.2,0,0,2,0,2.6,0s2.6,0,2.6,0c-.1-1-.2-2.1-.2-3.2,0-1.1,0-7.1,0-8.2Z"/>
  <path d="M63.3,0c-.4.2-.8.6-2.6.9-1,.2-2.3.1-2.6.1,0,1.4.2,2.9.2,4.3,0,1.4,0,9.6,0,11,0,1.4-.1,2.8-.2,4.2.3,0,.7,0,1.1,0h2.9c.5,0,.8,0,1.1,0,0-1.4-.2-2.8-.2-4.2,0-1.4,0-9.6,0-11,0-1.4.1-3.8.2-5.3Z"/>
  <path d="M38.4,12.4h0c-.8-.6-5.2-3.4-5.7-3.8-.5-.4-.8-.8-.8-1.1s.2-1,1.6-1c1,0,2.2.3,3.6.8,1.4.7,2.6,1.4,3.8,3.8v-4.8c-1.5-.3-3.2-.5-5-.5s-4.1.3-5.6.8c-1.6.5-2.3,1.4-2.3,2.4,0,2.1,1.8,3,2.5,3.5.7.5,6.6,3.1,7.5,4.6s.6,1.8-.6,2.3c-1.8.5-3.1,0-4.4-.4-2.3-1.1-3.4-2.2-4.7-3.6v4c1,.3,1.5.5,2.9.8,1.3.2,5.7.8,8.4-.4,1.3-.7,2.1-1.9,2-3.3-.1-1.1-.6-2.4-3-4.1Z"/>
  <path d="M69.5,0c-.4.2-.8.6-2.6.9-1,.2-2.3.1-2.6.1,0,1.4.2,2.9.2,4.3,0,1.4,0,9.6,0,11,0,1.4-.1,2.8-.2,4.2.3,0,.7,0,1.1,0h2.9c.5,0,.8,0,1.1,0,0-1.4-.2-2.8-.2-4.2,0-1.4,0-9.6,0-11,0-1.4.1-3.8.2-5.3Z"/>
  <polygon points="57.3 10.4 57.3 10.4 57.3 10.4 57.3 10.4 57.3 10.4"/>
  <path d="M53.8,6.6c-1-.6-1.8-1-3-1.1s-2.7,0-4.8,1-4.3,3.9-4.3,6.4c0,4.6,2.6,5.9,4.5,6.9s2.8.9,4.3.9,2.2-.2,3.3-.5c1.1-.3,2-.8,2.9-1.5l-1-2.9c-1.4,3.8-3.8,4.6-5.7,4.4-.9-.1-1.3-.4-1.8-.8-2.1-1.8-1.5-3.8-1.3-4,.5-.7,10.3-4.9,10.3-4.9-1-1.7-2.1-2.9-3.5-3.8ZM52.3,11.8l-5.7,2.3h0c0-1.3.3-3.8.6-4.8.3-1,.8-3.2,2.7-3.2s3,1.9,3.3,3.3c.4,1.8-.6,2.4-.9,2.5Z"/>
  <path d="M15.6,20c-2.1-.3-4.3-.2-6-.4-1.7-.2-2.3-1.6-2-2,1.2.5,2.3.7,3.7.7,2.2,0,4.2-.7,5.7-2,1.6-1.3,2.4-2.9,2.3-4.8-.1-1.4-.9-3.9-2.9-5.1.5-.6,2.6-3.4,4.2-2.9.9.3,1.5,2.2,1.4,2.7l4.2-3.9s-2.6-1.5-3.6-1.4c-1,0-1.7.3-2.7,1.1l-4,4.1c-1.4-.8-3-1.3-4.8-1.2-1.6,0-2.7.4-4.1.8-3,1.1-4.1,3.7-4,5.9h0c.4,3.6,2.2,4.5,4,5.8l-2.1,2.5v.3c0,0,3.2,0,4.9,0,4.7.5,6.6,3.7,6.7,6.2,0,2.8-2.4,6.4-6.3,6.5-5.6,0-5.8-11.5-5.8-11.5L0,26c.1,2.6,2.6,5.5,4.7,6.4,2.7,1.1,5.9.8,7.3.7,1.4-.1,8.5-1.3,9.4-7.4,0-1.7-1.2-5.1-5.7-5.7ZM14.9,10.3c.8,2.9,1,5-.1,6.7-.7.8-1.9,1.1-3.1,1-.1,0-1.7-.3-2.6-2.3.9-1.2,3.1-4.1,5.2-6.7.3.3.6,1.3.6,1.3ZM7.6,6.2h0c.7-.9,2.8-1.3,3.8-1,1,.5,1.8,1.4,2.7,3.2l-3.1,3.9-2.2,2.8c-.4-.7-.7-1.4-.9-2.3-1.1-3.8-.9-5.7-.2-6.7Z"/>
  <polygon points="85.8 10.4 85.8 10.4 85.8 10.4 85.8 10.4 85.8 10.4"/>
  <path d="M82.6,6.8c-1-.6-1.8-1-3-1.1s-2.7,0-4.8,1-4.3,3.9-4.3,6.4c0,4.6,2.6,5.9,4.5,6.9s2.8.9,4.3.9,2.2-.2,3.3-.5c1.1-.3,2-.8,2.9-1.5l-1-2.9c-1.4,3.8-3.8,4.6-5.7,4.4-.9-.1-1.3-.4-1.8-.8-2.1-1.8-1.5-3.8-1.3-4,.5-.7,10.3-4.9,10.3-4.9-1-1.7-2.1-2.9-3.5-3.8ZM81.1,11.9l-5.7,2.3h0c0-1.3.3-3.8.6-4.8.3-1,.8-3.2,2.7-3.2s3,1.9,3.3,3.3c.4,1.8-.6,2.4-.9,2.5Z"/>
</svg>