<?xml version="1.0" encoding="UTF-8"?>
<svg id="_レイヤー_1" data-name="レイヤー_1" xmlns="http://www.w3.org/2000/svg" version="1.1" viewBox="0 0 24 24">
  <!-- Generator: Adobe Illustrator 29.1.0, SVG Export Plug-In . SVG Version: 2.1.0 Build 142)  -->
  <defs>
    <style>
      .st0 {
        fill: #c2e7f2;
      }

      .st1 {
        fill: #010317;
      }
    </style>
  </defs>
  <rect class="st1" width="24" height="24"/>
  <g>
    <path d="M427.5,292c-7-.9-14.4-.6-20-1.2-5.5-.6-7.5-5.3-6.6-6.7,4,1.7,7.7,2.4,12.2,2.4,7.5,0,13.9-2.3,19.1-6.7,5.3-4.5,7.9-9.8,7.8-16-.4-4.6-3.2-11.8-9.6-16.9-.5-.4-1.9-1.2-1.9-1.2-4.7-2.8-10-4.2-16-4.1-5.2.3-9.1,1.3-13.5,2.8-10.1,3.6-13.5,12.2-13.4,19.8v.2c1.5,11.7,7.3,14.8,13.3,19l-7.1,8.2.2,1.1s10.4-.2,16,.3c15.7,1.7,22.1,12.3,22.2,20.5.1,9.3-7.9,21.4-21,21.5-18.7.2-19.2-38.2-19.2-38.2l-14.8,15.4c.5,8.6,8.7,18.3,15.5,21.3,9,3.5,19.7,2.7,24.3,2.2,4.8-.5,28.4-4.2,31.4-24.7,0-5.8-4-16.9-18.9-18.9ZM425.3,259.9c2.5,9.5,3.2,16.7-.4,22.3-2.5,2.7-6.4,3.7-10.2,3.4-.5,0-5.6-.9-8.7-7.6,3.1-4,10.5-13.5,17.4-22.2,1,1,2,4.2,2,4.2ZM401,246.1h0c2.4-3.1,9.2-4.3,12.6-3.2,3.4,1.7,6,4.8,8.9,10.8l-10.2,13-7.4,9.4c-1.2-2.2-2.3-4.7-3.1-7.7-3.6-12.8-3.1-18.9-.7-22.3Z"/>
    <path d="M444.9,217.4c0,10.4-11.3,20-21.7,20,10.4,0,21.7,9.6,21.7,20,0-10.4,11.3-20,21.7-20-10.4,0-21.7-9.6-21.7-20Z"/>
  </g>
  <g>
    <path class="st0" d="M14.1,14c-1.2-.2-2.5-.1-3.5-.2-1-.1-1.3-.9-1.2-1.2.7.3,1.4.4,2.1.4,1.3,0,2.4-.4,3.4-1.2.9-.8,1.4-1.7,1.4-2.8,0-.8-.6-2.1-1.7-3,0,0-.3-.2-.3-.2-.8-.5-1.8-.7-2.8-.7-.9,0-1.6.2-2.4.5-1.8.6-2.4,2.1-2.4,3.5h0c.3,2.1,1.3,2.6,2.3,3.4l-1.2,1.4v.2s1.9,0,2.8,0c2.8.3,3.9,2.2,3.9,3.6,0,1.6-1.4,3.8-3.7,3.8-3.3,0-3.4-6.7-3.4-6.7l-2.6,2.7c0,1.5,1.5,3.2,2.7,3.8,1.6.6,3.5.5,4.3.4.8,0,5-.7,5.5-4.3,0-1-.7-3-3.3-3.3ZM13.7,8.4c.4,1.7.6,2.9,0,3.9-.4.5-1.1.6-1.8.6,0,0-1-.2-1.5-1.3.5-.7,1.8-2.4,3.1-3.9.2.2.3.7.3.7ZM9.4,5.9h0c.4-.6,1.6-.7,2.2-.6.6.3,1.1.8,1.6,1.9l-1.8,2.3-1.3,1.7c-.2-.4-.4-.8-.5-1.3-.6-2.3-.5-3.3-.1-3.9Z"/>
    <path class="st0" d="M17.1.9c0,1.8-2,3.5-3.8,3.5,1.8,0,3.8,1.7,3.8,3.5,0-1.8,2-3.5,3.8-3.5-1.8,0-3.8-1.7-3.8-3.5Z"/>
  </g>
</svg>