<?xml version="1.0" encoding="UTF-8"?>
<svg id="_レイヤー_1" data-name="レイヤー 1" xmlns="http://www.w3.org/2000/svg" viewBox="0 0 86.18 33.21">
  <defs>
    <style>
      .cls-1 {
        fill: #fff;
      }
    </style>
  </defs>
  <path class="cls-1" d="M26.31,8.93h0c.03-1.08.14-1.19.19-1.76-1.33.07-1.83.07-2.37.07-.76,0-2.27-.09-2.58-.13.11,1.1.06.73.1,1.82.04,1.09.03,7.11,0,8.2-.04,1.1-.11,2.15-.22,3.16,0,0,2.03-.02,2.56-.02s2.56.02,2.56.02c-.11-1.01-.19-2.07-.22-3.16-.04-1.09-.03-7.12,0-8.2Z"/>
  <path class="cls-1" d="M63.31,0c-.36.18-.84.57-2.56.86-1,.17-2.26.14-2.56.11.09,1.45.16,2.88.2,4.29.05,1.41.05,9.57,0,10.98-.05,1.41-.11,2.82-.2,4.21.29-.04.67-.05,1.13-.05h2.86c.46,0,.83.02,1.13.05-.09-1.4-.16-2.8-.2-4.21-.05-1.41-.05-9.57,0-10.98.05-1.41.11-3.81.2-5.26Z"/>
  <path class="cls-1" d="M38.43,12.4h0c-.82-.58-5.19-3.39-5.72-3.8-.53-.42-.8-.79-.8-1.13s.2-1.04,1.57-1.01c.96.02,2.15.27,3.56.82,1.44.69,2.55,1.44,3.84,3.84l.1-4.83c-1.61-.34-3.31-.51-5.07-.51-2.19,0-4.06.27-5.62.82-1.56.54-2.34,1.35-2.34,2.43,0,2.09,1.79,3.02,2.47,3.53.68.51,6.58,3.07,7.46,4.56.55.93.62,1.75-.58,2.35-1.8.52-3.12.1-4.37-.44-2.33-1.1-3.38-2.19-4.73-3.59v4.02c1.03.3,1.54.5,2.86.78,1.31.23,5.71.85,8.38-.43,1.26-.69,2.11-1.95,1.98-3.3-.11-1.14-.6-2.42-2.99-4.1Z"/>
  <path class="cls-1" d="M69.57,0c-.36.18-.84.57-2.56.86-1,.17-2.26.14-2.56.11.09,1.45.16,2.88.2,4.29.05,1.41.05,9.57,0,10.98-.05,1.41-.11,2.82-.2,4.21.29-.04.67-.05,1.13-.05h2.86c.46,0,.83.02,1.13.05-.09-1.4-.16-2.8-.2-4.21-.05-1.41-.05-9.57,0-10.98.05-1.41.11-3.81.2-5.26Z"/>
  <polygon class="cls-1" points="57.38 10.43 57.39 10.43 57.39 10.43 57.38 10.43 57.38 10.43"/>
  <path class="cls-1" d="M53.88,6.64c-.98-.61-1.83-1.03-3-1.13-1.35-.12-2.68.06-4.81,1.02-2.72,1.22-4.26,3.91-4.26,6.35,0,4.56,2.56,5.91,4.5,6.86,1.33.65,2.8.9,4.34.9,1.11,0,2.2-.16,3.27-.49,1.07-.33,2.05-.82,2.93-1.47l-.98-2.94c-1.36,3.75-3.8,4.59-5.68,4.36-.9-.11-1.32-.37-1.79-.77-2.13-1.78-1.46-3.78-1.27-4.04.51-.69,10.25-4.86,10.25-4.86-1-1.71-2.14-2.95-3.5-3.79ZM52.39,11.81l-5.72,2.28h0c.03-1.32.25-3.83.58-4.81.33-.98.83-3.25,2.73-3.25,1.42,0,2.99,1.88,3.27,3.27.38,1.84-.61,2.41-.85,2.51Z"/>
  <path class="cls-1" d="M15.69,19.99c-2.09-.27-4.33-.19-5.99-.36-1.65-.19-2.26-1.58-1.97-2.01,1.21.51,2.32.73,3.66.72,2.25,0,4.16-.69,5.74-2.02,1.58-1.34,2.36-2.94,2.33-4.81-.12-1.39-.92-3.91-2.89-5.08.45-.6,2.64-3.45,4.18-2.92.86.29,1.45,2.22,1.39,2.66l4.18-3.88s-2.63-1.46-3.64-1.41c-1.01.05-1.69.29-2.68,1.06l-4,4.12c-1.41-.85-3.02-1.25-4.8-1.24-1.56.08-2.74.38-4.05.85-3.02,1.07-4.05,3.66-4.02,5.94v.05c.45,3.52,2.18,4.44,3.99,5.72l-2.13,2.46.06.32s3.12-.07,4.81.08c4.7.5,6.62,3.69,6.66,6.15.04,2.8-2.37,6.42-6.31,6.45-5.61.05-5.76-11.46-5.76-11.46L0,26.01c.15,2.6,2.63,5.51,4.65,6.41,2.7,1.07,5.9.8,7.3.66,1.44-.14,8.54-1.27,9.42-7.41,0-1.74-1.19-5.09-5.69-5.67ZM15,10.34c.77,2.87.96,5.01-.13,6.7-.74.81-1.91,1.11-3.08,1.01-.15-.01-1.69-.27-2.62-2.28.93-1.21,3.14-4.07,5.23-6.68.29.31.59,1.25.59,1.25ZM7.7,6.18h0c.73-.94,2.76-1.28,3.77-.97,1.04.51,1.81,1.45,2.66,3.24l-3.07,3.9-2.23,2.84c-.35-.66-.68-1.42-.93-2.31-1.08-3.85-.94-5.66-.2-6.69Z"/>
  <polygon class="cls-1" points="85.89 10.43 85.89 10.43 85.89 10.43 85.89 10.43 85.89 10.43"/>
  <path class="cls-1" d="M82.68,6.76c-.98-.61-1.83-1.03-3-1.13-1.35-.12-2.68.06-4.81,1.02-2.72,1.22-4.26,3.91-4.26,6.35,0,4.56,2.56,5.91,4.5,6.86,1.33.65,2.8.9,4.34.9,1.11,0,2.2-.16,3.27-.49,1.07-.33,2.05-.82,2.93-1.47l-.98-2.94c-1.36,3.75-3.8,4.59-5.68,4.36-.9-.11-1.32-.37-1.79-.77-2.13-1.78-1.46-3.78-1.27-4.04.51-.69,10.25-4.86,10.25-4.86-1-1.71-2.14-2.95-3.5-3.79ZM81.19,11.93l-5.72,2.28h0c.03-1.32.25-3.83.58-4.81.33-.98.83-3.25,2.73-3.25,1.42,0,2.99,1.88,3.27,3.27.38,1.84-.61,2.41-.85,2.51Z"/>
</svg>